#define shade_width 10
#define shade_height 10
static unsigned char shade_bits[] = {
   0x00, 0x00, 0x00, 0x00, 0x30, 0x00, 0x30, 0x00, 0x00, 0x00, 0x00, 0x00,
   0x30, 0x00, 0x30, 0x00, 0x00, 0x00, 0x00, 0x00 };
